<svg width="36" height="35" viewBox="0 0 36 35" fill="none" xmlns="http://www.w3.org/2000/svg">
<rect x="0.5" width="35" height="35" rx="17.5" fill="#1A9FBD"/>
<path d="M23.9735 25.2219C22.1821 27.0134 17.5943 25.3301 13.7263 21.4621C9.85841 17.5942 8.17511 13.0064 9.96656 11.2149L11.1461 10.0354C11.9604 9.22109 13.3022 9.24262 14.143 10.0835L15.97 11.9105C16.8109 12.7513 16.8324 14.0931 16.0181 14.9074L15.7647 15.1607C15.3251 15.6004 15.2821 16.3096 15.6906 16.8047C16.0846 17.2822 16.5094 17.7578 16.9701 18.2184C17.4307 18.679 17.9063 19.1038 18.3838 19.4979C18.8788 19.9064 19.5881 19.8634 20.0277 19.4237L20.2811 19.1704C21.0954 18.3561 22.4372 18.3776 23.278 19.2185L25.105 21.0455C25.9459 21.8863 25.9674 23.2281 25.1531 24.0424L23.9735 25.2219Z" stroke="white" stroke-width="2"/>
<path opacity="0.3" d="M22.6569 14.9382C22.4332 14.3926 22.0999 13.8815 21.6569 13.4385C21.2389 13.0205 20.7602 12.7002 20.2492 12.4775" stroke="white" stroke-linecap="round"/>
<path opacity="0.3" d="M20.2484 9.35812C21.4719 9.80134 22.6197 10.5133 23.6006 11.4942C24.606 12.4996 25.329 13.6806 25.7695 14.9385" stroke="white" stroke-linecap="round"/>
</svg>
